<?xml version="1.0" encoding="UTF-8"?>
<svg id="Layer_1_copy_3" data-name="Layer 1 copy 3" xmlns="http://www.w3.org/2000/svg" viewBox="0 0 1024 1024">
  <defs>
    <style>
      .cls-1 {
        fill: none;
        stroke: #000;
        stroke-miterlimit: 10;
        stroke-width: 29.03px;
      }

      .cls-2 {
        fill: #fff;
      }
    </style>
  </defs>
  <path class="cls-2" d="M772.43,512c0-143.83-116.6-260.43-260.43-260.43-122.15,0-224.64,84.1-252.77,197.55l-50.3,187.6,65.32,17.52h-.02s53.32,110.81,53.32,110.81h55.53v69.16h321.92v-147.35c41.91-46.22,67.44-107.56,67.44-174.86Z"/>
  <path d="M719.5,848.73h-350.95v-69.16h-50.13l-54.4-113.04-72.88-19.54,54.03-201.5c14.54-58.48,48.68-111.42,96.17-149.06,23.77-18.85,50.26-33.52,78.74-43.62,29.46-10.45,60.39-15.75,91.92-15.75,73.44,0,142.49,28.6,194.42,80.53,51.93,51.93,80.53,120.98,80.53,194.42,0,66.52-23.91,130.34-67.44,180.38v156.35ZM397.59,819.7h292.89v-138.44l3.76-4.15c41.06-45.29,63.68-103.93,63.68-165.12,0-135.6-110.32-245.91-245.92-245.91-113.3,0-211.45,76.7-238.68,186.53l-.07.27-46.54,173.58,88.69,23.78-21.85,10.7,43.12,89.59h60.92v69.16Z"/>
  <polyline class="cls-1" points="550.42 326.14 550.42 373.11 474.42 373.11 474.42 326.14"/>
  <rect class="cls-1" x="450.52" y="373.11" width="122.97" height="122.97"/>
  <circle class="cls-1" cx="358.85" cy="552.4" r="38"/>
  <line class="cls-1" x1="512" y1="373.11" x2="512" y2="326.14"/>
  <polyline class="cls-1" points="403.55 396.18 450.52 396.18 450.52 472.18 403.55 472.18"/>
  <line class="cls-1" x1="450.52" y1="434.6" x2="403.55" y2="434.6"/>
  <polyline class="cls-1" points="473.58 543.05 473.58 496.08 549.58 496.08 549.58 543.05"/>
  <line class="cls-1" x1="512" y1="496.08" x2="512" y2="543.05"/>
  <polyline class="cls-1" points="620.45 473.01 573.48 473.01 573.48 397.02 620.45 397.02"/>
  <line class="cls-1" x1="573.48" y1="434.6" x2="620.45" y2="434.6"/>
</svg>